<svg xmlns="http://www.w3.org/2000/svg" width="165.975" height="48.289" viewBox="0 0 165.975 48.289">
  <g id="logo" transform="translate(0 -0.029)">
    <path id="Path_1" data-name="Path 1" d="M0,14.13v.123l27.95,13.13L56,14.209v-.033L27.95,1Zm10.077.062L27.95,5.8l17.877,8.4-17.877,8.4-17.874-8.4ZM27.95,32.483,0,19.55v4.784L27.95,37.3,56,24.289V19.5Zm0,9.7L0,29.25v4.783L27.95,47,56,33.99V29.206Z" fill="#fff" fill-rule="evenodd"/>
    <g id="Group_1" data-name="Group 1" transform="translate(72)">
      <path id="Path_2" data-name="Path 2" d="M87.56,24.152A8.1,8.1,0,0,0,85.4,18.579a7.259,7.259,0,0,0-2.34-1.673,7.063,7.063,0,0,0-5.7,0,7.257,7.257,0,0,0-2.34,1.673,8.271,8.271,0,0,0,0,11.147,7.257,7.257,0,0,0,2.34,1.672,7.054,7.054,0,0,0,5.7,0A7.259,7.259,0,0,0,85.4,29.726a8.1,8.1,0,0,0,2.16-5.574Zm6.415,0a13.4,13.4,0,0,1-1.07,5.373,13.1,13.1,0,0,1-2.94,4.28,14.029,14.029,0,0,1-9.757,3.9,13.658,13.658,0,0,1-5.346-1.048A13.863,13.863,0,0,1,70.5,33.783a13.352,13.352,0,0,1-4.01-9.631,12.942,12.942,0,0,1,1.092-5.284,13.92,13.92,0,0,1,2.962-4.325A13.71,13.71,0,0,1,80.208,10.6a13.844,13.844,0,0,1,5.369,1.048A13.989,13.989,0,0,1,89.965,14.5a13.021,13.021,0,0,1,2.94,4.3A13.45,13.45,0,0,1,93.975,24.152ZM64.258,36.9a8.6,8.6,0,0,1-1.715.58,8.752,8.752,0,0,1-1.982.222,9.84,9.84,0,0,1-2.74-.379,6,6,0,0,1-2.3-1.226,5.943,5.943,0,0,1-1.56-2.207,8.37,8.37,0,0,1-.578-3.277V.029h6.549V29.5a2.965,2.965,0,0,0,.646,2.207,2.178,2.178,0,0,0,1.537.6,3.855,3.855,0,0,0,2.138-.669V36.9ZM50.492,11.22,38.908,41.854a10.438,10.438,0,0,1-3.386,4.95,8.285,8.285,0,0,1-4.99,1.515,8.055,8.055,0,0,1-.98-.066,7.352,7.352,0,0,1-1.025-.2l-2.138-5.975a8.486,8.486,0,0,0,1.56.557,6.231,6.231,0,0,0,1.514.2,5.6,5.6,0,0,0,2.762-.691,4.48,4.48,0,0,0,1.916-2.564l.891-2.586L25.1,11.221h6.995l5.925,16.588,5.57-16.588h6.9ZM23.538,7.342H6.786v8.294H23.315v5.618H6.785V37.038H.015V1.412H23.539v5.93Z" fill="#fff" fill-rule="evenodd"/>
    </g>
  </g>
</svg>
